<svg width="1080" height="100" xmlns="http://www.w3.org/2000/svg"><path d="m0 27 22.5.7c22.5.6 67.5 2 112.5 1s90-4.4 135-3.9c45 .5 90 4.9 135 7.5C450 35 495 36 540 34s90-7 135-10.2c45-3.1 90-4.5 135-4s90 2.9 135 8.2c45 5.3 90 13.7 112.5 17.8L1080 50v51H0z" fill="#f5f5f5"/><path d="m0 52 22.5-1.8C45 48.3 90 44.7 135 45.2s90 5.1 135 6.1 90-1.6 135-4.5c45-2.8 90-5.8 135-3.5 45 2.4 90 10 135 12.4 45 2.3 90-.7 135-3.7s90-6 135-5.3c45 .6 90 5 112.5 7.1L1080 56v45H0z" fill="#9c9c9c"/><path d="m0 76 22.5-2.3C45 71.3 90 66.7 135 63c45-3.7 90-6.3 135-4.8s90 7.1 135 8.3c45 1.2 90-2.2 135-1.7 45 .5 90 4.9 135 7 45 2.2 90 2.2 135 0 45-2.1 90-6.5 135-8.8 45-2.3 90-2.7 112.5-2.8l22.5-.2v41H0z" fill="#4c4c4c"/><path d="m0 73 22.5.7c22.5.6 67.5 2 112.5 2s90-1.4 135-1.7c45-.3 90 .3 135 2s90 4.3 135 4c45-.3 90-3.7 135-5.3 45-1.7 90-1.7 135-1.9 45-.1 90-.5 135 2.2s90 8.3 112.5 11.2L1080 89v12H0z"/></svg>