<svg id="visual" viewBox="0 0 1080 100" width="1080" height="100" xmlns="http://www.w3.org/2000/svg" xmlns:xlink="http://www.w3.org/1999/xlink" version="1.1"><path d="M0 36L16.3 34.3C32.7 32.7 65.3 29.3 98 27.7C130.7 26 163.3 26 196.2 27C229 28 262 30 294.8 28.3C327.7 26.7 360.3 21.3 393 22.5C425.7 23.7 458.3 31.3 491 32.8C523.7 34.3 556.3 29.7 589 29.3C621.7 29 654.3 33 687 34.2C719.7 35.3 752.3 33.7 785.2 34C818 34.3 851 36.7 883.8 35.7C916.7 34.7 949.3 30.3 982 27C1014.7 23.7 1047.3 21.3 1063.7 20.2L1080 19L1080 101L1063.7 101C1047.3 101 1014.7 101 982 101C949.3 101 916.7 101 883.8 101C851 101 818 101 785.2 101C752.3 101 719.7 101 687 101C654.3 101 621.7 101 589 101C556.3 101 523.7 101 491 101C458.3 101 425.7 101 393 101C360.3 101 327.7 101 294.8 101C262 101 229 101 196.2 101C163.3 101 130.7 101 98 101C65.3 101 32.7 101 16.3 101L0 101Z" fill="#ffffff"></path><path d="M0 44L16.3 42.7C32.7 41.3 65.3 38.7 98 37.7C130.7 36.7 163.3 37.3 196.2 36.3C229 35.3 262 32.7 294.8 32C327.7 31.3 360.3 32.7 393 34.8C425.7 37 458.3 40 491 40.5C523.7 41 556.3 39 589 37C621.7 35 654.3 33 687 32C719.7 31 752.3 31 785.2 33C818 35 851 39 883.8 42.7C916.7 46.3 949.3 49.7 982 50.5C1014.7 51.3 1047.3 49.7 1063.7 48.8L1080 48L1080 101L1063.7 101C1047.3 101 1014.7 101 982 101C949.3 101 916.7 101 883.8 101C851 101 818 101 785.2 101C752.3 101 719.7 101 687 101C654.3 101 621.7 101 589 101C556.3 101 523.7 101 491 101C458.3 101 425.7 101 393 101C360.3 101 327.7 101 294.8 101C262 101 229 101 196.2 101C163.3 101 130.7 101 98 101C65.3 101 32.7 101 16.3 101L0 101Z" fill="#b9b9b9"></path><path d="M0 51L16.3 51.8C32.7 52.7 65.3 54.3 98 55.5C130.7 56.7 163.3 57.3 196.2 58.3C229 59.3 262 60.7 294.8 59.3C327.7 58 360.3 54 393 54C425.7 54 458.3 58 491 57C523.7 56 556.3 50 589 47.2C621.7 44.3 654.3 44.7 687 47.8C719.7 51 752.3 57 785.2 57C818 57 851 51 883.8 49.3C916.7 47.7 949.3 50.3 982 52.8C1014.7 55.3 1047.3 57.7 1063.7 58.8L1080 60L1080 101L1063.7 101C1047.3 101 1014.7 101 982 101C949.3 101 916.7 101 883.8 101C851 101 818 101 785.2 101C752.3 101 719.7 101 687 101C654.3 101 621.7 101 589 101C556.3 101 523.7 101 491 101C458.3 101 425.7 101 393 101C360.3 101 327.7 101 294.8 101C262 101 229 101 196.2 101C163.3 101 130.7 101 98 101C65.3 101 32.7 101 16.3 101L0 101Z" fill="#777777"></path><path d="M0 67L16.3 66.7C32.7 66.3 65.3 65.7 98 65.2C130.7 64.7 163.3 64.3 196.2 64C229 63.7 262 63.3 294.8 64.7C327.7 66 360.3 69 393 70C425.7 71 458.3 70 491 70.3C523.7 70.7 556.3 72.3 589 73.2C621.7 74 654.3 74 687 74C719.7 74 752.3 74 785.2 72.5C818 71 851 68 883.8 65.8C916.7 63.7 949.3 62.3 982 64.3C1014.7 66.3 1047.3 71.7 1063.7 74.3L1080 77L1080 101L1063.7 101C1047.3 101 1014.7 101 982 101C949.3 101 916.7 101 883.8 101C851 101 818 101 785.2 101C752.3 101 719.7 101 687 101C654.3 101 621.7 101 589 101C556.3 101 523.7 101 491 101C458.3 101 425.7 101 393 101C360.3 101 327.7 101 294.8 101C262 101 229 101 196.2 101C163.3 101 130.7 101 98 101C65.3 101 32.7 101 16.3 101L0 101Z" fill="#3b3b3b"></path><path d="M0 74L16.3 75C32.7 76 65.3 78 98 79.5C130.7 81 163.3 82 196.2 81.5C229 81 262 79 294.8 78.2C327.7 77.3 360.3 77.7 393 79.2C425.7 80.7 458.3 83.3 491 83.2C523.7 83 556.3 80 589 79.5C621.7 79 654.3 81 687 82.5C719.7 84 752.3 85 785.2 85.5C818 86 851 86 883.8 84.3C916.7 82.7 949.3 79.3 982 78.5C1014.7 77.7 1047.3 79.3 1063.7 80.2L1080 81L1080 101L1063.7 101C1047.3 101 1014.7 101 982 101C949.3 101 916.7 101 883.8 101C851 101 818 101 785.2 101C752.3 101 719.7 101 687 101C654.3 101 621.7 101 589 101C556.3 101 523.7 101 491 101C458.3 101 425.7 101 393 101C360.3 101 327.7 101 294.8 101C262 101 229 101 196.2 101C163.3 101 130.7 101 98 101C65.3 101 32.7 101 16.3 101L0 101Z" fill="#000000"></path></svg>