<svg id="visual" viewBox="0 0 960 70" width="960" height="70" xmlns="http://www.w3.org/2000/svg" xmlns:xlink="http://www.w3.org/1999/xlink" version="1.1"><path d="M0 32L20 29C40 26 80 20 120 18.2C160 16.3 200 18.7 240 20.7C280 22.7 320 24.3 360 24.7C400 25 440 24 480 23C520 22 560 21 600 20.5C640 20 680 20 720 20.5C760 21 800 22 840 24C880 26 920 29 940 30.5L960 32L960 71L940 71C920 71 880 71 840 71C800 71 760 71 720 71C680 71 640 71 600 71C560 71 520 71 480 71C440 71 400 71 360 71C320 71 280 71 240 71C200 71 160 71 120 71C80 71 40 71 20 71L0 71Z" fill="#f5f5f5"></path><path d="M0 32L20 33C40 34 80 36 120 35.8C160 35.7 200 33.3 240 30.5C280 27.7 320 24.3 360 25.3C400 26.3 440 31.7 480 32.3C520 33 560 29 600 27.8C640 26.7 680 28.3 720 29.3C760 30.3 800 30.7 840 31.3C880 32 920 33 940 33.5L960 34L960 71L940 71C920 71 880 71 840 71C800 71 760 71 720 71C680 71 640 71 600 71C560 71 520 71 480 71C440 71 400 71 360 71C320 71 280 71 240 71C200 71 160 71 120 71C80 71 40 71 20 71L0 71Z" fill="#b2b2b2"></path><path d="M0 36L20 37.3C40 38.7 80 41.3 120 40.8C160 40.3 200 36.7 240 36.2C280 35.7 320 38.3 360 40.5C400 42.7 440 44.3 480 44.2C520 44 560 42 600 41.2C640 40.3 680 40.7 720 39.3C760 38 800 35 840 36C880 37 920 42 940 44.5L960 47L960 71L940 71C920 71 880 71 840 71C800 71 760 71 720 71C680 71 640 71 600 71C560 71 520 71 480 71C440 71 400 71 360 71C320 71 280 71 240 71C200 71 160 71 120 71C80 71 40 71 20 71L0 71Z" fill="#737373"></path><path d="M0 50L20 49.8C40 49.7 80 49.3 120 48.8C160 48.3 200 47.7 240 47C280 46.3 320 45.7 360 45.5C400 45.3 440 45.7 480 45.3C520 45 560 44 600 43.5C640 43 680 43 720 43.8C760 44.7 800 46.3 840 48C880 49.7 920 51.3 940 52.2L960 53L960 71L940 71C920 71 880 71 840 71C800 71 760 71 720 71C680 71 640 71 600 71C560 71 520 71 480 71C440 71 400 71 360 71C320 71 280 71 240 71C200 71 160 71 120 71C80 71 40 71 20 71L0 71Z" fill="#3a3a3a"></path><path d="M0 55L20 54.8C40 54.7 80 54.3 120 55.7C160 57 200 60 240 60.3C280 60.7 320 58.3 360 56.8C400 55.3 440 54.7 480 54.8C520 55 560 56 600 57.3C640 58.7 680 60.3 720 60C760 59.7 800 57.3 840 55.8C880 54.3 920 53.7 940 53.3L960 53L960 71L940 71C920 71 880 71 840 71C800 71 760 71 720 71C680 71 640 71 600 71C560 71 520 71 480 71C440 71 400 71 360 71C320 71 280 71 240 71C200 71 160 71 120 71C80 71 40 71 20 71L0 71Z" fill="#000000"></path></svg>