<svg id="visual" viewBox="0 0 1080 100" width="1080" height="100" xmlns="http://www.w3.org/2000/svg" xmlns:xlink="http://www.w3.org/1999/xlink" version="1.1"><path d="M0 76L16.3 75.7C32.7 75.3 65.3 74.7 98 75.8C130.7 77 163.3 80 196.2 81.2C229 82.3 262 81.7 294.8 77.8C327.7 74 360.3 67 393 64.7C425.7 62.3 458.3 64.7 491 65C523.7 65.3 556.3 63.7 589 63.8C621.7 64 654.3 66 687 65.8C719.7 65.7 752.3 63.3 785.2 63C818 62.7 851 64.3 883.8 67.7C916.7 71 949.3 76 982 75C1014.7 74 1047.3 67 1063.7 63.5L1080 60L1080 0L1063.7 0C1047.3 0 1014.7 0 982 0C949.3 0 916.7 0 883.8 0C851 0 818 0 785.2 0C752.3 0 719.7 0 687 0C654.3 0 621.7 0 589 0C556.3 0 523.7 0 491 0C458.3 0 425.7 0 393 0C360.3 0 327.7 0 294.8 0C262 0 229 0 196.2 0C163.3 0 130.7 0 98 0C65.3 0 32.7 0 16.3 0L0 0Z" fill="#ffffff"></path><path d="M0 58L16.3 56.8C32.7 55.7 65.3 53.3 98 54.2C130.7 55 163.3 59 196.2 61.8C229 64.7 262 66.3 294.8 64C327.7 61.7 360.3 55.3 393 54.3C425.7 53.3 458.3 57.7 491 57.5C523.7 57.3 556.3 52.7 589 52.5C621.7 52.3 654.3 56.7 687 57.7C719.7 58.7 752.3 56.3 785.2 55.3C818 54.3 851 54.7 883.8 56.8C916.7 59 949.3 63 982 61C1014.7 59 1047.3 51 1063.7 47L1080 43L1080 0L1063.7 0C1047.3 0 1014.7 0 982 0C949.3 0 916.7 0 883.8 0C851 0 818 0 785.2 0C752.3 0 719.7 0 687 0C654.3 0 621.7 0 589 0C556.3 0 523.7 0 491 0C458.3 0 425.7 0 393 0C360.3 0 327.7 0 294.8 0C262 0 229 0 196.2 0C163.3 0 130.7 0 98 0C65.3 0 32.7 0 16.3 0L0 0Z" fill="#b9b9b9"></path><path d="M0 32L16.3 34C32.7 36 65.3 40 98 41.5C130.7 43 163.3 42 196.2 39.8C229 37.7 262 34.3 294.8 35.5C327.7 36.7 360.3 42.3 393 43C425.7 43.7 458.3 39.3 491 37.2C523.7 35 556.3 35 589 34.3C621.7 33.7 654.3 32.3 687 33.3C719.7 34.3 752.3 37.7 785.2 37.7C818 37.7 851 34.3 883.8 34.8C916.7 35.3 949.3 39.7 982 43.3C1014.7 47 1047.3 50 1063.7 51.5L1080 53L1080 0L1063.7 0C1047.3 0 1014.7 0 982 0C949.3 0 916.7 0 883.8 0C851 0 818 0 785.2 0C752.3 0 719.7 0 687 0C654.3 0 621.7 0 589 0C556.3 0 523.7 0 491 0C458.3 0 425.7 0 393 0C360.3 0 327.7 0 294.8 0C262 0 229 0 196.2 0C163.3 0 130.7 0 98 0C65.3 0 32.7 0 16.3 0L0 0Z" fill="#777777"></path><path d="M0 34L16.3 34.3C32.7 34.7 65.3 35.3 98 34.8C130.7 34.3 163.3 32.7 196.2 31.5C229 30.3 262 29.7 294.8 29.5C327.7 29.3 360.3 29.7 393 29.7C425.7 29.7 458.3 29.3 491 29.3C523.7 29.3 556.3 29.7 589 30.7C621.7 31.7 654.3 33.3 687 34.3C719.7 35.3 752.3 35.7 785.2 34.5C818 33.3 851 30.7 883.8 28.8C916.7 27 949.3 26 982 26C1014.7 26 1047.3 27 1063.7 27.5L1080 28L1080 0L1063.7 0C1047.3 0 1014.7 0 982 0C949.3 0 916.7 0 883.8 0C851 0 818 0 785.2 0C752.3 0 719.7 0 687 0C654.3 0 621.7 0 589 0C556.3 0 523.7 0 491 0C458.3 0 425.7 0 393 0C360.3 0 327.7 0 294.8 0C262 0 229 0 196.2 0C163.3 0 130.7 0 98 0C65.3 0 32.7 0 16.3 0L0 0Z" fill="#3b3b3b"></path><path d="M0 22L16.3 19.8C32.7 17.7 65.3 13.3 98 12C130.7 10.7 163.3 12.3 196.2 14.7C229 17 262 20 294.8 21.2C327.7 22.3 360.3 21.7 393 20.3C425.7 19 458.3 17 491 16.5C523.7 16 556.3 17 589 17.8C621.7 18.7 654.3 19.3 687 19.2C719.7 19 752.3 18 785.2 16.2C818 14.3 851 11.7 883.8 12.2C916.7 12.7 949.3 16.3 982 18.5C1014.7 20.7 1047.3 21.3 1063.7 21.7L1080 22L1080 0L1063.7 0C1047.3 0 1014.7 0 982 0C949.3 0 916.7 0 883.8 0C851 0 818 0 785.2 0C752.3 0 719.7 0 687 0C654.3 0 621.7 0 589 0C556.3 0 523.7 0 491 0C458.3 0 425.7 0 393 0C360.3 0 327.7 0 294.8 0C262 0 229 0 196.2 0C163.3 0 130.7 0 98 0C65.3 0 32.7 0 16.3 0L0 0Z" fill="#000000"></path></svg>