<svg width="1080" height="100" xmlns="http://www.w3.org/2000/svg"><path d="m0 59 22.5 2.3c22.5 2.4 67.5 7 112.5 6s90-7.6 135-7c45 .7 90 8.7 135 9.2S495 63 540 63s90 7 135 10.5S765 77 810 76s90-3 135-7.7c45-4.6 90-12 112.5-15.6L1080 49V0H0z" fill="#f5f5f5"/><path d="m0 48 22.5-1.8C45 44.3 90 40.7 135 41.8 180 43 225 49 270 53c45 4 90 6 135 4.3 45-1.6 90-7 135-7.6 45-.7 90 3.3 135 5.3s90 2 135-1.7c45-3.6 90-11 135-10.6 45 .3 90 8.3 112.5 12.3l22.5 4V0H0z" fill="#9c9c9c"/><path d="m0 37 22.5-.3c22.5-.4 67.5-1 112.5-1.9 45-.8 90-1.8 135-.5 45 1.4 90 5 135 3.7 45-1.3 90-7.7 135-10s90-.7 135-.5c45 .2 90-1.2 135-2.2 45-1 90-1.6 135-.1s90 5.1 112.5 7L1080 34V0H0z" fill="#4c4c4c"/><path d="m0 24 22.5-.8C45 22.3 90 20.7 135 19.7s90-1.4 135-2.7c45-1.3 90-3.7 135-3.7s90 2.4 135 2.7c45 .3 90-1.3 135-1.2 45 .2 90 2.2 135 3.2s90 1 135 1.2c45 .1 90 .5 112.5.6l22.5.2V0H0z"/></svg>