<svg id="visual" viewBox="0 0 960 70" width="960" height="70" xmlns="http://www.w3.org/2000/svg" xmlns:xlink="http://www.w3.org/1999/xlink" version="1.1"><path d="M0 41L20 42.5C40 44 80 47 120 46.5C160 46 200 42 240 40.3C280 38.7 320 39.3 360 42.3C400 45.3 440 50.7 480 52.3C520 54 560 52 600 48.3C640 44.7 680 39.3 720 37.8C760 36.3 800 38.7 840 42C880 45.3 920 49.7 940 51.8L960 54L960 0L940 0C920 0 880 0 840 0C800 0 760 0 720 0C680 0 640 0 600 0C560 0 520 0 480 0C440 0 400 0 360 0C320 0 280 0 240 0C200 0 160 0 120 0C80 0 40 0 20 0L0 0Z" fill="#f5f5f5"></path><path d="M0 43L20 43C40 43 80 43 120 42.7C160 42.3 200 41.7 240 41.2C280 40.7 320 40.3 360 38.7C400 37 440 34 480 33.3C520 32.7 560 34.3 600 35.2C640 36 680 36 720 34.7C760 33.3 800 30.7 840 32C880 33.3 920 38.7 940 41.3L960 44L960 0L940 0C920 0 880 0 840 0C800 0 760 0 720 0C680 0 640 0 600 0C560 0 520 0 480 0C440 0 400 0 360 0C320 0 280 0 240 0C200 0 160 0 120 0C80 0 40 0 20 0L0 0Z" fill="#b2b2b2"></path><path d="M0 20L20 21C40 22 80 24 120 24.3C160 24.7 200 23.3 240 23.8C280 24.3 320 26.7 360 28.3C400 30 440 31 480 30.8C520 30.7 560 29.3 600 28.2C640 27 680 26 720 26.5C760 27 800 29 840 30.7C880 32.3 920 33.7 940 34.3L960 35L960 0L940 0C920 0 880 0 840 0C800 0 760 0 720 0C680 0 640 0 600 0C560 0 520 0 480 0C440 0 400 0 360 0C320 0 280 0 240 0C200 0 160 0 120 0C80 0 40 0 20 0L0 0Z" fill="#737373"></path><path d="M0 24L20 22.5C40 21 80 18 120 16.3C160 14.7 200 14.3 240 16.3C280 18.3 320 22.7 360 24.2C400 25.7 440 24.3 480 23.2C520 22 560 21 600 20.3C640 19.7 680 19.3 720 19.5C760 19.7 800 20.3 840 19.7C880 19 920 17 940 16L960 15L960 0L940 0C920 0 880 0 840 0C800 0 760 0 720 0C680 0 640 0 600 0C560 0 520 0 480 0C440 0 400 0 360 0C320 0 280 0 240 0C200 0 160 0 120 0C80 0 40 0 20 0L0 0Z" fill="#3a3a3a"></path><path d="M0 13L20 13C40 13 80 13 120 13.3C160 13.7 200 14.3 240 13.3C280 12.3 320 9.7 360 9.5C400 9.3 440 11.7 480 11.8C520 12 560 10 600 9C640 8 680 8 720 8.3C760 8.7 800 9.3 840 9C880 8.7 920 7.3 940 6.7L960 6L960 0L940 0C920 0 880 0 840 0C800 0 760 0 720 0C680 0 640 0 600 0C560 0 520 0 480 0C440 0 400 0 360 0C320 0 280 0 240 0C200 0 160 0 120 0C80 0 40 0 20 0L0 0Z" fill="#000000"></path></svg>